<svg
      width="32"
      height="32"
      viewBox="0 0 32 32"
      fill="none"
      xmlns="http://www.w3.org/2000/svg"
    >
      <path
        d="M27 14.0001C27 16.8213 26.0125 19.4001 24.2213 21.2638C22.5488 23.0001 20.2813 24.0001 18 24.0001C15.765 24.0001 14.2725 23.2676 13.3213 22.5001L11.9738 28.2288C11.9222 28.4483 11.7979 28.644 11.6211 28.784C11.4444 28.924 11.2255 29.0001 11 29.0001C10.9226 29 10.8454 28.9912 10.77 28.9738C10.6417 28.9444 10.5204 28.8899 10.4132 28.8134C10.306 28.737 10.2149 28.6401 10.1452 28.5284C10.0755 28.4167 10.0286 28.2923 10.0071 28.1623C9.98562 28.0324 9.99 27.8995 10.02 27.7713L14.02 10.7713C14.0807 10.5131 14.2414 10.2895 14.467 10.1498C14.6925 10.0101 14.9642 9.96566 15.2225 10.0263C15.4808 10.087 15.7043 10.2478 15.844 10.4733C15.9838 10.6988 16.0282 10.9706 15.9675 11.2288L13.855 20.2038C14.25 20.7501 15.4125 22.0001 18 22.0001C21.4413 22.0001 25 19.0076 25 14.0001C24.9995 12.6199 24.6815 11.2584 24.0707 10.0207C23.4599 8.78303 22.5727 7.70242 21.4776 6.86242C20.3825 6.02242 19.1088 5.44554 17.7552 5.17639C16.4015 4.90723 15.004 4.95301 13.6709 5.31018C12.3377 5.66736 11.1046 6.32636 10.0668 7.23623C9.02901 8.1461 8.21439 9.28246 7.68591 10.5574C7.15744 11.8324 6.92928 13.2119 7.01907 14.5891C7.10886 15.9664 7.5142 17.3045 8.20375 18.5001C8.32814 18.7291 8.35817 18.9977 8.28744 19.2486C8.21672 19.4995 8.05084 19.7128 7.82513 19.8432C7.59942 19.9736 7.33173 20.0107 7.07907 19.9466C6.82642 19.8825 6.60877 19.7223 6.4725 19.5001C5.62929 18.0388 5.13348 16.4032 5.02343 14.7198C4.91338 13.0363 5.19203 11.35 5.83783 9.79148C6.48362 8.2329 7.47927 6.84376 8.74775 5.73148C10.0162 4.6192 11.5236 3.81359 13.1531 3.37697C14.7827 2.94035 16.4909 2.88441 18.1456 3.21348C19.8003 3.54255 21.3571 4.24781 22.6956 5.27472C24.0341 6.30162 25.1185 7.62265 25.8649 9.13564C26.6113 10.6486 26.9997 12.313 27 14.0001Z"
        fill="black"
        stroke="black"
      />
    </svg>